<svg width="24" height="24" viewBox="0 0 24 24" fill="none" xmlns="http://www.w3.org/2000/svg">
<path fill-rule="evenodd" clip-rule="evenodd" d="M14.2397 16.1539C13.3893 16.6161 12.4146 16.8787 11.3787 16.8787C8.06495 16.8787 5.37866 14.1924 5.37866 10.8787C5.37866 7.56498 8.06495 4.87869 11.3787 4.87869C14.6924 4.87869 17.3787 7.56498 17.3787 10.8787C17.3787 12.4302 16.7898 13.8441 15.8234 14.9092L18.6213 17.7071L17.2071 19.1213L14.2397 16.1539ZM15.3787 10.8787C15.3787 13.0878 13.5878 14.8787 11.3787 14.8787C9.16952 14.8787 7.37866 13.0878 7.37866 10.8787C7.37866 8.66955 9.16952 6.87869 11.3787 6.87869C13.5878 6.87869 15.3787 8.66955 15.3787 10.8787Z" fill="#0C0C0C"/>
</svg>
