<svg width="18" height="18" viewBox="0 0 18 18" fill="none" xmlns="http://www.w3.org/2000/svg">
<path fill-rule="evenodd" clip-rule="evenodd" d="M9.8737 1.49999C9.48539 0.833325 8.51461 0.833326 8.1263 1.49999L1.13667 13.5C0.748355 14.1667 1.23375 15 2.01037 15H15.9896C16.7663 15 17.2516 14.1667 16.8633 13.5L9.8737 1.49999ZM9.53695 10.1992H8.35335L8.23031 4.53906H9.65413L9.53695 10.1992ZM9.84749 12.2559C9.84749 12.7773 9.49007 13.1289 8.95101 13.1289C8.40609 13.1289 8.04281 12.7773 8.04281 12.2559C8.04281 11.7285 8.40609 11.377 8.95101 11.377C9.49007 11.377 9.84749 11.7285 9.84749 12.2559Z" fill="#FBA12E"/>
</svg>
